<?xml version="1.0" encoding="UTF-8" standalone="no"?>
<!DOCTYPE svg PUBLIC "-//W3C//DTD SVG 1.1//EN" "http://www.w3.org/Graphics/SVG/1.1/DTD/svg11.dtd">
<svg xmlns="http://www.w3.org/2000/svg" version="1.1" viewBox="0 0 721 346">
<path fill="#1f8081" d="M 332.44,95.32 L 297.10,60.10 A 0.52,0.52 -46.6 0 1 297.08,59.38 Q 303.45,52.23 310.55,45.83 A 0.86,0.85 46.2 0 1 311.73,45.86 L 361.51,95.52 A 0.95,0.95 -45.2 0 1 361.51,96.87 L 311.33,146.92 A 0.49,0.48 45.0 0 1 310.64,146.91 L 297.19,133.31 A 0.98,0.96 45.0 0 1 297.18,131.94 L 332.45,96.67 A 0.96,0.95 45.0 0 0 332.44,95.32 Z"/>
<rect fill="#1f8081" x="368.75" y="127.25" width="72.04" height="20.50" rx="0.34"/>
<path fill="#1f8081" d="M 265.14,263.87 A 0.84,0.83 -59.1 0 1 264.87,262.77 L 271.67,249.99 A 0.67,0.67 -55.3 0 1 272.71,249.80 Q 278.14,254.67 285.72,255.91 Q 291.66,256.88 294.69,252.44 Q 296.02,250.48 295.45,248.19 Q 295.00,246.40 293.22,244.89 Q 290.54,242.62 287.00,241.75 Q 285.33,241.34 281.13,239.67 Q 277.39,238.18 275.54,236.99 Q 268.60,232.53 267.63,224.69 Q 266.82,218.17 269.11,211.96 Q 271.58,205.23 278.19,201.94 Q 286.14,197.98 295.00,199.26 Q 302.83,200.40 310.58,204.02 A 0.57,0.55 25.9 0 1 310.86,204.77 L 304.61,217.45 A 0.83,0.82 32.7 0 1 303.35,217.71 Q 298.93,214.20 293.50,213.78 Q 290.51,213.55 288.60,214.45 Q 285.87,215.74 285.55,218.93 Q 285.34,221.01 286.62,222.65 Q 287.98,224.39 290.00,225.00 Q 301.01,228.32 306.69,232.06 Q 311.58,235.29 313.01,242.20 Q 316.52,259.15 302.69,267.44 Q 295.28,271.88 285.25,270.95 Q 274.48,269.96 265.14,263.87 Z"/>
<path fill="#1f8081" d="M 120.84,232.84 L 115.39,268.57 A 0.60,0.60 -85.5 0 1 114.80,269.08 L 99.15,269.23 A 0.69,0.68 -85.7 0 1 98.47,268.43 L 109.72,201.31 A 0.61,0.60 -84.8 0 1 110.31,200.81 L 126.07,200.76 A 1.08,1.06 79.6 0 1 127.09,201.48 L 139.73,236.45 Q 140.21,237.77 140.68,236.45 L 153.42,201.29 A 0.83,0.83 10.1 0 1 154.20,200.75 L 169.80,200.75 A 1.18,1.18 85.1 0 1 170.96,201.73 L 182.03,268.70 A 0.47,0.47 85.3 0 1 181.57,269.25 L 165.87,269.25 A 0.93,0.93 85.3 0 1 164.95,268.47 L 159.45,232.61 Q 159.12,230.49 158.34,232.48 L 144.25,268.48 A 1.21,1.20 -79.3 0 1 143.13,269.25 L 137.02,269.25 A 0.90,0.89 -10.4 0 1 136.18,268.68 L 122.18,232.69 Q 121.24,230.27 120.84,232.84 Z"/>
<path fill="#1f8081" d="M 346.07,231.89 Q 345.49,230.42 345.25,231.98 L 339.75,268.28 A 1.12,1.09 -85.1 0 1 338.66,269.23 L 323.18,269.08 A 0.44,0.43 -85.4 0 1 322.76,268.57 L 333.93,201.20 A 0.55,0.55 5.0 0 1 334.47,200.75 L 350.55,200.75 A 0.74,0.72 -9.5 0 1 351.24,201.23 L 363.94,236.33 Q 364.42,237.65 364.90,236.33 L 377.56,201.57 A 1.33,1.27 9.2 0 1 378.78,200.73 L 394.12,200.58 A 0.99,0.94 -4.7 0 1 395.10,201.37 L 406.23,268.57 A 0.43,0.42 84.8 0 1 405.82,269.08 L 390.31,269.23 A 1.09,1.04 84.9 0 1 389.26,268.31 L 383.53,232.76 Q 383.19,230.64 382.41,232.64 Q 375.64,250.04 368.69,268.19 Q 368.15,269.59 366.26,269.46 Q 364.69,269.36 363.73,269.37 Q 362.32,269.39 361.02,268.88 A 1.19,1.05 87.5 0 1 360.38,268.22 L 346.07,231.89 Z"/>
<path fill="#1f8081" d="M 590.50,227.90 Q 589.50,226.58 589.50,228.24 L 589.50,268.41 A 0.84,0.84 -0.0 0 1 588.66,269.25 L 573.23,269.25 A 0.54,0.54 89.9 0 1 572.69,268.71 L 572.50,201.23 A 0.55,0.55 89.8 0 1 573.05,200.68 L 589.18,200.81 A 1.04,0.99 -18.0 0 1 589.99,201.20 L 620.86,241.58 Q 622.00,243.07 622.00,241.19 L 622.00,201.63 A 0.88,0.88 45.0 0 1 622.88,200.75 L 638.58,200.75 A 0.67,0.67 89.8 0 1 639.25,201.42 L 639.06,268.56 A 0.52,0.49 -90.0 0 1 638.57,269.08 L 622.98,269.23 A 1.98,1.85 70.1 0 1 621.47,268.46 L 590.50,227.90 Z"/>
<path fill="#1f8081" d="M 222.40,224.05 L 207.72,268.33 A 1.34,1.33 9.0 0 1 206.45,269.25 L 189.47,269.20 A 0.76,0.76 10.3 0 1 188.76,268.18 L 212.89,201.53 A 0.76,0.73 -80.0 0 1 213.57,201.03 L 232.40,200.77 A 1.23,1.17 79.1 0 1 233.53,201.58 L 257.75,268.50 A 0.56,0.56 79.8 0 1 257.23,269.25 L 239.76,269.25 A 1.06,1.04 -9.2 0 1 238.76,268.54 L 223.93,224.05 Q 223.17,221.75 222.40,224.05 Z"/>
<rect fill="#1f8081" x="417.75" y="200.76" width="17.26" height="68.54" rx="0.27"/>
<path fill="#1f8081" d="M 469.97,269.29 A 0.96,0.94 89.4 0 1 469.04,268.36 Q 468.73,256.63 468.74,246.21 Q 468.74,246.15 469.09,241.81 Q 469.28,239.46 468.69,237.21 Q 468.24,235.49 466.64,233.19 Q 455.91,217.69 444.68,201.58 Q 444.10,200.75 445.10,200.76 L 464.44,200.81 A 0.99,0.97 -17.3 0 1 465.24,201.22 L 476.60,217.63 A 1.09,1.07 45.2 0 0 478.37,217.65 L 489.71,201.41 A 1.05,1.04 -74.0 0 1 490.50,200.97 Q 500.39,200.44 509.85,200.91 Q 510.83,200.96 510.27,201.77 L 486.34,236.40 A 1.67,1.59 63.3 0 0 486.06,237.32 L 486.00,268.63 A 0.81,0.78 -89.7 0 1 485.21,269.44 L 469.97,269.29 Z"/>
<path fill="#1f8081" d="M 537.07,216.81 L 537.06,253.70 A 0.51,0.49 0.0 0 0 537.57,254.19 L 557.38,254.01 A 0.88,0.87 90.0 0 1 558.25,254.89 L 558.19,268.55 A 0.71,0.70 -0.0 0 1 557.48,269.25 L 520.94,269.25 A 0.94,0.94 -0.1 0 1 520.00,268.31 L 520.00,201.41 A 0.66,0.66 -89.5 0 1 520.66,200.75 L 557.72,200.75 A 0.52,0.50 0.5 0 1 558.24,201.26 L 558.10,215.08 A 1.07,1.00 -0.0 0 1 557.04,216.07 L 537.56,216.28 A 0.53,0.50 89.5 0 0 537.07,216.81 Z"/>
<ellipse fill="#c8c7b1" cx="0.00" cy="0.00" transform="translate(550.02,234.99) rotate(91.6)" rx="9.07" ry="8.76"/>
<ellipse fill="#c8c7b1" cx="0.00" cy="0.00" transform="translate(223.14,257.31) rotate(86.7)" rx="9.08" ry="8.61"/>
</svg>
